<svg width="327" height="105" viewBox="0 0 327 105" fill="none" xmlns="http://www.w3.org/2000/svg">
<path d="M205.337 0H137.746V12.2878H205.337V0Z" fill="#DB1B1B"/>
<path d="M171.559 19.4502C146.82 19.4502 128.304 37.6243 128.304 62.5889C128.304 85.1103 143.643 102.087 165.038 104.967C165.57 105.038 166.11 104.994 166.624 104.839C167.137 104.684 167.611 104.42 168.014 104.066C168.417 103.712 168.739 103.275 168.959 102.786C169.179 102.297 169.292 101.767 169.29 101.23V89.3552C169.293 88.4118 168.941 87.5017 168.304 86.8062C167.666 86.1106 166.79 85.6806 165.85 85.6017C151.399 84.3084 150.106 74.5287 150.106 62.5855C150.106 48.6905 158.916 33.4066 171.569 33.4066C184.222 33.4066 193.033 48.6905 193.033 62.5855C193.033 74.3751 192.07 84.2367 177.715 85.5471C176.777 85.6314 175.905 86.0633 175.27 86.7579C174.635 87.4524 174.282 88.3594 174.282 89.3007V101.162C174.28 101.701 174.394 102.234 174.616 102.724C174.839 103.215 175.164 103.652 175.57 104.006C175.977 104.36 176.454 104.622 176.971 104.775C177.488 104.928 178.031 104.968 178.564 104.892C199.639 101.821 214.834 84.9192 214.834 62.5787C214.824 37.6243 196.186 19.4502 171.559 19.4502Z" fill="#DB1B1B"/>
<path d="M185.972 61.9406C185.972 71.2119 187.699 78.7293 171.572 78.7293C155.446 78.7293 157.172 71.2222 157.172 61.9406C157.172 52.6591 163.618 41.3165 171.572 41.3165C179.527 41.3165 185.972 52.6693 185.972 61.9406Z" fill="#DB1B1B"/>
<path d="M31.0283 75.1191H23.8044L23.685 99.159L6.15926 99.217V39.9447H0V22.1801H6.15926V16.3177H23.9239V22.1801H59.4497V39.8867C59.527 54.3346 55.8167 64.3441 48.3186 69.9153L63.5376 99.2852H43.5209L31.0283 75.1191ZM23.9819 57.6684H29.6668C37.7199 57.6684 41.7465 51.7867 41.7465 40.0232L23.9239 39.9618L23.9819 57.6684Z" fill="#DB1B1B"/>
<path d="M100.545 79.5073V70.915L95.1565 69.3147C89.2736 66.9101 83.9436 68.3512 79.1663 73.6381L65.0734 68.4275L65.012 22.1221H82.7186L82.7766 52.5567C85.263 49.9519 91.0265 49.8382 100.067 52.2155L100.603 52.3929V21.8389H118.306V57.5899L122.868 59.3745L118.309 76.1905V78.7975H118.367C118.367 79.48 118.347 80.1181 118.309 80.7494V82.8241H118.132C116.084 97.5904 102.386 104.972 77.037 104.97H70.8198V87.2567H77.037C91.9603 87.2567 99.7961 84.6736 100.545 79.5073Z" fill="#DB1B1B"/>
<path d="M251.277 75.1191H244.053L243.934 99.159L226.408 99.217V39.9447H220.266V22.1801H226.408V16.3177H244.152V22.1801H279.699V39.8867C279.778 54.3346 276.068 64.3441 268.568 69.9153L283.787 99.2852H263.773L251.277 75.1191ZM244.231 57.6684H249.916C257.969 57.6684 261.996 51.7867 261.996 40.0232L244.17 39.9618L244.231 57.6684Z" fill="#DB1B1B"/>
<path d="M326.714 81.3364L326.656 99.101L285.858 99.2784V81.4558L297.214 81.2135V39.8868L285.783 39.9448V22.1802L297.214 22.1222V16.2598H314.975V22.1222L326.761 22.1802V39.9448L314.975 39.8868V81.2784L326.714 81.3364Z" fill="#DB1B1B"/>
</svg>
